<svg width="24" height="25" viewBox="0 0 24 25" fill="none" xmlns="http://www.w3.org/2000/svg">
<g clip-path="url(#clip0_35_975)">
<path d="M17.9667 0.356934H6.01427C2.70262 0.356934 0 3.05955 0 6.37121V18.3427C0 21.6353 2.70262 24.3379 6.01427 24.3379H17.9857C21.2974 24.3379 24 21.6353 24 18.3236V6.37121C23.981 3.05955 21.2784 0.356934 17.9667 0.356934ZM7.99366 19.7701H4.5678V9.87319H7.99366V19.7701ZM6.2617 8.35059C5.29104 8.35059 4.51071 7.57026 4.51071 6.5996C4.51071 5.62894 5.29104 4.84861 6.2617 4.84861C7.23236 4.84861 8.01269 5.62894 8.01269 6.5996C7.99366 7.57026 7.21332 8.35059 6.2617 8.35059ZM19.4322 19.7701H19.4132H16.5583V14.9739C16.5583 13.8129 16.406 12.3284 14.8263 12.3284C13.2086 12.3284 12.9421 13.5845 12.9421 14.8978V19.7701H10.0872V9.87319H12.7518V11.2055H12.8279C13.2466 10.4442 14.2173 9.85416 15.7399 9.85416C18.8803 9.85416 19.4322 11.6622 19.4322 14.3458V19.7701Z" fill="white"/>
</g>
<defs>
<clipPath id="clip0_35_975">
<rect width="24" height="24" fill="white" transform="translate(0 0.347656)"/>
</clipPath>
</defs>
</svg>
