<svg width="24" height="25" viewBox="0 0 24 25" fill="none" xmlns="http://www.w3.org/2000/svg">
<g clip-path="url(#clip0_35_979)">
<path d="M17.9667 0.356934H6.01427C2.70262 0.356934 0 3.05955 0 6.37121V18.3427C0 21.6353 2.70262 24.3379 6.01427 24.3379H17.9857C21.2974 24.3379 24 21.6353 24 18.3236V6.37121C23.981 3.05955 21.2784 0.356934 17.9667 0.356934ZM17.9477 9.34028C17.9477 9.47351 17.9477 9.60674 17.9477 9.73996C17.9477 13.7368 14.8644 18.3427 9.21174 18.3427C7.47978 18.3427 5.86201 17.8478 4.51071 16.9914C4.75813 17.0104 4.98652 17.0294 5.23394 17.0294C6.68041 17.0294 7.99366 16.5536 9.04044 15.7352C7.68914 15.7162 6.56622 14.8407 6.16653 13.6416C6.35686 13.6797 6.54718 13.6987 6.73751 13.6987C7.023 13.6987 7.30849 13.6607 7.55591 13.5845C6.18557 13.299 5.13878 12.081 5.13878 10.6155V10.5774C5.51943 10.8058 6.01427 10.939 6.50912 10.958C5.69072 10.4251 5.13878 9.49254 5.13878 8.44575C5.13878 7.89381 5.29104 7.37993 5.55749 6.92315C7.0801 8.75027 9.32593 9.94932 11.8763 10.0825C11.8192 9.85416 11.8002 9.62577 11.8002 9.39738C11.8002 7.72252 13.1705 6.37121 14.8644 6.37121C15.7399 6.37121 16.5393 6.73283 17.1102 7.32283C17.8144 7.18961 18.4615 6.94218 19.0515 6.58057C18.8232 7.28477 18.3283 7.87478 17.7002 8.25543C18.3283 8.1793 18.9183 8.02704 19.4703 7.77961C19.0515 8.38865 18.5377 8.92157 17.9477 9.34028Z" fill="white"/>
</g>
<defs>
<clipPath id="clip0_35_979">
<rect width="24" height="24" fill="white" transform="translate(0 0.347656)"/>
</clipPath>
</defs>
</svg>
