<svg width="53" height="53" viewBox="0 0 53 53" fill="none" xmlns="http://www.w3.org/2000/svg">
<g clip-path="url(#clip0_35_787)">
<path d="M51.7163 37.9566L46.3691 35.283L42.9659 26.4307C42.9258 26.326 42.8646 26.2307 42.7861 26.1508C42.7075 26.0708 42.6133 26.0079 42.5094 25.966L21.3934 17.5253C21.2458 17.4666 21.0842 17.4522 20.9285 17.4841C20.7728 17.5159 20.6298 17.5926 20.5171 17.7047L17.7008 20.5209C17.5903 20.6337 17.5149 20.7762 17.4837 20.931C17.4526 21.0859 17.4672 21.2464 17.5256 21.3931L25.9663 42.5092C26.0082 42.6131 26.0711 42.7073 26.151 42.7858C26.231 42.8644 26.3263 42.9256 26.4309 42.9656L35.2833 46.3688L37.9569 51.7161C38.0132 51.834 38.097 51.9366 38.2013 52.0154C38.3055 52.0941 38.4272 52.1466 38.556 52.1685C38.5994 52.1725 38.6431 52.1725 38.6864 52.1685C38.9023 52.1676 39.1089 52.0811 39.2611 51.928L51.9283 39.2608C52.0215 39.1709 52.0919 39.06 52.1338 38.9374C52.1756 38.8148 52.1876 38.6839 52.1687 38.5558C52.1469 38.4269 52.0943 38.3053 52.0156 38.201C51.9369 38.0967 51.8342 38.0129 51.7163 37.9566ZM19.2333 21.2872L19.6857 20.8389L30.1968 31.35C29.5041 32.3316 29.2049 33.5374 29.3585 34.7289C29.512 35.9205 30.107 37.0111 31.0259 37.785C31.9448 38.5589 33.1207 38.9599 34.321 38.9086C35.5213 38.8573 36.6587 38.3575 37.5082 37.508C38.3577 36.6584 38.8576 35.5211 38.9089 34.3208C38.9602 33.1204 38.5592 31.9446 37.7853 31.0257C37.0113 30.1068 35.9207 29.5117 34.7292 29.3582C33.5376 29.2047 32.3318 29.5039 31.3502 30.1966L20.8391 19.6854L21.2874 19.233L41.572 27.3477L44.7714 35.6702L35.6704 44.7711L27.3479 41.5717L19.2333 21.2872ZM34.1135 30.9465C34.8461 30.9476 35.5557 31.2026 36.1213 31.6682C36.687 32.1338 37.0737 32.781 37.2156 33.4998C37.3576 34.2185 37.2459 34.9642 36.8997 35.6098C36.5535 36.2554 35.9942 36.7611 35.317 37.0405C34.6398 37.32 33.8867 37.3561 33.1859 37.1426C32.4851 36.9291 31.88 36.4792 31.4737 35.8696C31.0674 35.26 30.885 34.5284 30.9576 33.7994C31.0302 33.0704 31.3534 32.3891 31.8719 31.8717C32.467 31.2784 33.2733 30.9457 34.1135 30.9465ZM38.9106 49.9758L36.8728 45.9001L45.8922 36.8807L49.9679 38.9185L38.9106 49.9758Z" fill="url(#paint0_linear_35_787)"/>
<path d="M15.5898 43.6097C15.4339 43.4623 15.2275 43.3803 15.013 43.3803C14.7986 43.3803 14.5922 43.4623 14.4363 43.6097L13.4011 44.6449C10.6386 40.8955 9.11454 36.3776 9.04148 31.7209C8.96842 27.0643 10.35 22.5008 12.9936 18.6666C13.7856 19.1024 14.6975 19.2698 15.5927 19.1438C16.4878 19.0177 17.3181 18.6049 17.9589 17.9673C18.5997 17.3297 19.0167 16.5015 19.1473 15.607C19.2778 14.7125 19.115 13.7997 18.6832 13.0055C22.5174 10.3619 27.0809 8.98038 31.7375 9.05344C36.3942 9.1265 40.912 10.6505 44.6615 13.4131L43.6099 14.4361C43.4584 14.5889 43.3734 14.7955 43.3735 15.0107C43.3729 15.118 43.3935 15.2244 43.4341 15.3237C43.4746 15.423 43.5344 15.5133 43.6099 15.5895L47.2047 19.1557C47.3574 19.3075 47.564 19.3927 47.7793 19.3927C47.9947 19.3927 48.2013 19.3075 48.354 19.1557L51.9284 15.5813C52.0042 15.5056 52.0643 15.4157 52.1053 15.3168C52.1463 15.2178 52.1674 15.1117 52.1674 15.0046C52.1674 14.8975 52.1463 14.7914 52.1053 14.6925C52.0643 14.5935 52.0042 14.5036 51.9284 14.4279L48.354 10.8536C48.2013 10.7017 47.9947 10.6165 47.7793 10.6165C47.564 10.6165 47.3574 10.7017 47.2047 10.8536L45.823 12.2271C42.4178 9.66468 38.392 8.05479 34.1589 7.56272C29.9258 7.07065 25.638 7.71413 21.7359 9.42708L26.4351 4.74007C26.9679 4.99467 27.5737 5.0523 28.145 4.90274C28.7163 4.75318 29.2161 4.40609 29.5558 3.92306C29.8955 3.44003 30.0532 2.85228 30.0007 2.26408C29.9483 1.67588 29.6893 1.12526 29.2695 0.709899C28.8497 0.294539 28.2964 0.0412933 27.7077 -0.0049108C27.119 -0.0511149 26.5329 0.11271 26.0535 0.4575C25.5741 0.80229 25.2323 1.30575 25.0888 1.87858C24.9452 2.4514 25.0092 3.05654 25.2695 3.58666L17.3382 11.5301C16.5329 10.9899 15.5651 10.7461 14.6 10.8403C13.6349 10.9345 12.7324 11.3608 12.0467 12.0465C11.3611 12.7321 10.9347 13.6346 10.8405 14.5997C10.7464 15.5648 10.9902 16.5327 11.5304 17.3379L3.58692 25.2692C3.05473 25.0099 2.44784 24.9476 1.87409 25.0935C1.30033 25.2394 0.79688 25.5839 0.453187 26.066C0.109494 26.548 -0.0521786 27.1363 -0.00310142 27.7262C0.0459758 28.3162 0.302624 28.8697 0.721238 29.2883C1.13985 29.7069 1.69332 29.9635 2.28329 30.0126C2.87326 30.0617 3.46153 29.9 3.94355 29.5563C4.42558 29.2126 4.77015 28.7092 4.91603 28.1354C5.06191 27.5617 4.99966 26.9548 4.74034 26.4226L9.43958 21.7356C7.72491 25.6367 7.0794 29.9239 7.56932 34.1569C8.05924 38.39 9.66693 42.4164 12.2273 45.8228L10.8498 47.2044C10.6979 47.3571 10.6127 47.5637 10.6127 47.7791C10.6127 47.9944 10.6979 48.201 10.8498 48.3537L14.4241 51.9281C14.5763 52.0812 14.7829 52.1676 14.9988 52.1686C15.1063 52.1686 15.2129 52.1474 15.3122 52.1062C15.4115 52.0649 15.5017 52.0044 15.5775 51.9281L19.156 48.3537C19.3078 48.201 19.393 47.9944 19.393 47.7791C19.393 47.5637 19.3078 47.3571 19.156 47.2044L15.5898 43.6097ZM47.7875 12.5735L50.2084 14.9944L47.7875 17.4154L45.3665 14.9944L47.7875 12.5735ZM26.8997 1.88711C27.0208 1.76499 27.1755 1.68161 27.3441 1.64754C27.5127 1.61347 27.6876 1.63025 27.8466 1.69575C28.0057 1.76125 28.1417 1.87251 28.2374 2.01542C28.3331 2.15834 28.3842 2.32646 28.3842 2.49846C28.3842 2.67045 28.3331 2.83858 28.2374 2.98149C28.1417 3.1244 28.0057 3.23567 27.8466 3.30116C27.6876 3.36666 27.5127 3.38344 27.3441 3.34937C27.1755 3.3153 27.0208 3.23192 26.8997 3.10981C26.8194 3.02956 26.7556 2.93426 26.7121 2.82936C26.6686 2.72446 26.6463 2.61201 26.6463 2.49846C26.6463 2.3849 26.6686 2.27245 26.7121 2.16755C26.7556 2.06265 26.8194 1.96735 26.8997 1.88711ZM13.2055 13.2052C13.4422 12.9674 13.7235 12.7787 14.0334 12.6499C14.3432 12.5211 14.6755 12.4548 15.011 12.4548C15.3466 12.4548 15.6788 12.5211 15.9886 12.6499C16.2985 12.7787 16.5798 12.9674 16.8165 13.2052C17.1743 13.5624 17.4181 14.0178 17.517 14.5136C17.616 15.0094 17.5656 15.5234 17.3723 15.9906C17.179 16.4578 16.8515 16.8572 16.4312 17.1381C16.0108 17.4191 15.5166 17.5691 15.011 17.5691C14.5054 17.5691 14.0112 17.4191 13.5909 17.1381C13.1705 16.8572 12.843 16.4578 12.6497 15.9906C12.4564 15.5234 12.406 15.0094 12.505 14.5136C12.6039 14.0178 12.8477 13.5624 13.2055 13.2052ZM3.11415 28.1221C2.94773 28.2609 2.73544 28.3325 2.51897 28.3227C2.30251 28.3129 2.09753 28.2225 1.94431 28.0693C1.79109 27.9161 1.70071 27.7111 1.69093 27.4946C1.68115 27.2782 1.75267 27.0659 1.89145 26.8995C2.05456 26.7392 2.2741 26.6493 2.5028 26.6493C2.73149 26.6493 2.95104 26.7392 3.11415 26.8995C3.19449 26.9797 3.25824 27.075 3.30173 27.1799C3.34521 27.2848 3.3676 27.3972 3.3676 27.5108C3.3676 27.6244 3.34521 27.7368 3.30173 27.8417C3.25824 27.9466 3.19449 28.0419 3.11415 28.1221ZM15.011 50.1837L12.5901 47.7628L15.011 45.3418L17.432 47.7628L15.011 50.1837Z" fill="url(#paint1_linear_35_787)"/>
</g>
<defs>
<linearGradient id="paint0_linear_35_787" x1="17.4678" y1="34.691" x2="56.7047" y2="34.691" gradientUnits="userSpaceOnUse">
<stop stop-color="#0B5CE4"/>
<stop offset="1" stop-color="#4AB6CE"/>
</linearGradient>
<linearGradient id="paint1_linear_35_787" x1="-0.0117183" y1="25.8847" x2="58.9734" y2="25.8847" gradientUnits="userSpaceOnUse">
<stop stop-color="#0B5CE4"/>
<stop offset="1" stop-color="#4AB6CE"/>
</linearGradient>
<clipPath id="clip0_35_787">
<rect width="52.1685" height="52.1685" fill="white"/>
</clipPath>
</defs>
</svg>
