<svg width="24" height="25" viewBox="0 0 24 25" fill="none" xmlns="http://www.w3.org/2000/svg">
<g clip-path="url(#clip0_35_916)">
<path d="M7.55016 22.0979C16.6045 22.0979 21.5583 14.5946 21.5583 8.08976C21.5583 7.87882 21.5536 7.6632 21.5442 7.45226C22.5079 6.75536 23.3395 5.89215 24 4.9032C23.1025 5.3025 22.1496 5.56328 21.1739 5.67664C22.2013 5.06081 22.9705 4.09337 23.3391 2.95367C22.3726 3.52646 21.3156 3.93051 20.2134 4.14851C19.4708 3.35946 18.489 2.83702 17.4197 2.66195C16.3504 2.48689 15.2532 2.66895 14.2977 3.18C13.3423 3.69104 12.5818 4.50261 12.1338 5.48921C11.6859 6.47582 11.5754 7.58252 11.8195 8.6382C9.86249 8.53999 7.94794 8.0316 6.19998 7.146C4.45203 6.26039 2.90969 5.01734 1.67297 3.49742C1.0444 4.58114 0.852057 5.86355 1.13503 7.08399C1.418 8.30444 2.15506 9.37135 3.19641 10.0679C2.41463 10.0431 1.64998 9.83258 0.965625 9.45382V9.51476C0.964925 10.6521 1.3581 11.7545 2.07831 12.6347C2.79852 13.5149 3.80132 14.1185 4.91625 14.3429C4.19206 14.541 3.43198 14.5699 2.69484 14.4273C3.00945 15.4053 3.62157 16.2608 4.44577 16.8742C5.26997 17.4877 6.26512 17.8285 7.29234 17.8491C5.54842 19.219 3.39417 19.962 1.17656 19.9585C0.783287 19.9579 0.390399 19.9338 0 19.8863C2.25286 21.3316 4.87353 22.0993 7.55016 22.0979Z" fill="url(#paint0_linear_35_916)"/>
</g>
<defs>
<linearGradient id="paint0_linear_35_916" x1="2.25958e-07" y1="12.2753" x2="27.1304" y2="12.2753" gradientUnits="userSpaceOnUse">
<stop stop-color="#0B5CE4"/>
<stop offset="1" stop-color="#4AB6CE"/>
</linearGradient>
<clipPath id="clip0_35_916">
<rect width="24" height="24" fill="white" transform="translate(0 0.347656)"/>
</clipPath>
</defs>
</svg>
