<svg width="24" height="25" viewBox="0 0 24 25" fill="none" xmlns="http://www.w3.org/2000/svg">
<g clip-path="url(#clip0_35_971)">
<path d="M17.981 0.347656H6C2.70476 0.347656 0 3.05242 0 6.3667V18.3477C0 21.6429 2.70476 24.3477 6 24.3477H17.981C21.2952 24.3477 24 21.6429 24 18.3286V6.3667C24 3.05242 21.2952 0.347656 17.981 0.347656ZM15.219 12.3477H12.9524V19.7762H10.0952V12.3477H8.57143V9.30004H9.90476V8.0048C9.90476 6.78575 10.5143 4.86194 13.0857 4.86194H15.4286V7.39528H13.7714C13.5048 7.39528 13.1429 7.5667 13.1429 8.15718V9.30004H15.4857L15.219 12.3477Z" fill="white"/>
</g>
<defs>
<clipPath id="clip0_35_971">
<rect width="24" height="24" fill="white" transform="translate(0 0.347656)"/>
</clipPath>
</defs>
</svg>
