<?xml version="1.0" encoding="UTF-8"?>
<svg id="_图层_2" data-name="图层 2" xmlns="http://www.w3.org/2000/svg" viewBox="0 0 976.43 770.09">
  <defs>
    <style>
      .cls-1 {
        fill: #0061e2;
      }
    </style>
  </defs>
  <g id="_图层_1-2" data-name="图层 1">
    <g>
      <path class="cls-1" d="M740.84,330.13h-104.26l-51.04,88.42-3.15,5.46c-4.54,7.86-12.93,12.7-22,12.7h-144.33c-9.08,0-17.46-4.84-22-12.7l-3.16-5.47-65.85-114.06-3.15-5.46c-4.54-7.86-4.54-17.55,0-25.41l3.15-5.46,65.86-114.06,3.15-5.46c4.54-7.86,12.93-12.7,22-12.7h144.33c9.08,0,17.46,4.84,22,12.7l3.16,5.47,51.04,88.41h104.26l21.06-36.48c3.25-5.62,3.25-12.55,0-18.17l-51.6-89.38c-3.25-5.62-9.24-9.08-15.73-9.08h-92.64l-46.36-80.3c-3.25-5.62-9.24-9.09-15.73-9.09h-103.21c-6.49,0-12.49,3.46-15.73,9.09l-46.36,80.3h-92.65c-6.49,0-12.49,3.46-15.73,9.08l-51.6,89.38c-3.25,5.62-3.25,12.55,0,18.17l46.36,80.3-46.36,80.3c-3.25,5.62-3.25,12.55,0,18.17l51.6,89.38c3.25,5.62,9.24,9.09,15.73,9.09h92.64l46.36,80.3c3.24,5.62,9.24,9.08,15.73,9.08h103.21c6.49,0,12.49-3.46,15.73-9.08l46.36-80.3h92.65c6.49,0,12.49-3.47,15.73-9.09l51.6-89.38c3.25-5.62,3.25-12.54,0-18.17l-21.06-36.48Z"/>
      <path class="cls-1" d="M580.72,271.61l-16.81-29.12-16.73-28.97-4.2-7.28c-2.64-4.57-7.52-7.39-12.8-7.39h-83.94c-5.28,0-10.16,2.81-12.8,7.39l-4.2,7.28-33.54,58.09-4.22,7.32c-2.64,4.57-2.64,10.2,0,14.78l4.22,7.31,33.54,58.09,4.2,7.28c2.64,4.57,7.52,7.39,12.8,7.39h83.94c5.28,0,10.16-2.82,12.8-7.39l4.2-7.28,16.73-28.98,16.81-29.12,4.22-7.31c2.64-4.57,2.64-10.2,0-14.78l-4.22-7.32Z"/>
    </g>
    <g>
      <path class="cls-1" d="M109.95,638.17H39.85c-21.97,0-39.85,17.88-39.85,39.85v52.13c0,21.97,17.88,39.85,39.85,39.85H109.95c21.97,0,39.85-17.88,39.85-39.85v-6.37h-31.88v6.37c0,4.39-3.58,7.97-7.97,7.97H39.85c-4.39,0-7.97-3.58-7.97-7.97v-52.13c0-4.39,3.58-7.97,7.97-7.97H109.95c4.39,0,7.97,3.58,7.97,7.97v6.37h31.88v-6.37c0-21.97-17.88-39.85-39.85-39.85Z"/>
      <path class="cls-1" d="M269.59,638.17h-54.13c-26.37,0-47.82,21.45-47.82,47.82v83.69h31.88v-83.69c0-8.79,7.15-15.94,15.94-15.94h54.13c8.79,0,15.94,7.15,15.94,15.94v15.1h-71.58v31.88h71.58v36.71h31.88v-83.69c0-26.37-21.45-47.82-47.82-47.82Z"/>
      <path class="cls-1" d="M367.05,721.82v-83.58h-31.88v83.58c0,26.37,21.45,47.82,47.82,47.82h52.12v-31.88h-52.12c-8.79,0-15.94-7.15-15.94-15.94Z"/>
      <rect class="cls-1" x="452.87" y="638.43" width="31.88" height="131.25"/>
      <path class="cls-1" d="M649.3,694.34c1.87-4.68,2.93-9.77,2.93-15.11,0-22.5-18.3-40.8-40.8-40.8h-92.74v15.94h-.02v115.39h31.88v-.02h77.26c22.49,0,40.79-18.3,40.79-40.79,0-14.6-7.74-27.41-19.31-34.61Zm-28.95-15.11c0,4.92-4,8.92-8.91,8.92h-60.88v-17.83h60.88c4.92,0,8.91,4,8.91,8.91Zm7.47,58.63h-77.26v-17.82h77.26c4.91,0,8.91,4,8.91,8.91s-4,8.91-8.91,8.91Z"/>
      <path class="cls-1" d="M944.76,718.79c17.75-4.42,30.96-20.45,30.96-39.55,0-22.5-18.3-40.8-40.8-40.8h-94.92v31.88h94.92c4.92,0,8.92,4,8.92,8.92s-4,8.92-8.92,8.92h-55.39c-21.97,0-39.85,17.88-39.85,39.85v41.75h31.88v-41.75c0-4.39,3.58-7.97,7.97-7.97h28.53l30.9,50.05h37.47l-31.67-51.3Z"/>
      <rect class="cls-1" x="686.56" y="638.43" width="136.16" height="31.88"/>
      <path class="cls-1" d="M718.81,728c0-4.39,3.58-7.97,7.97-7.97h73.3v-31.88h-73.3c-21.97,0-39.85,17.88-39.85,39.85v41.76h31.88v-.02h103.9v-31.88h-103.9v-9.86Z"/>
    </g>
  </g>
</svg>