<svg width="53" height="53" viewBox="0 0 53 53" fill="none" xmlns="http://www.w3.org/2000/svg">
<g clip-path="url(#clip0_35_792)">
<path d="M21.6336 31.4252C21.3207 31.1123 20.8144 31.1123 20.5013 31.4252L9.30339 42.6233C8.99002 42.9363 8.99002 43.4423 9.30339 43.7561C9.45951 43.9118 9.66454 43.9907 9.86934 43.9907C10.0746 43.9907 10.2796 43.9116 10.4357 43.7561L21.6336 32.5578C21.947 32.2451 21.947 31.7382 21.6336 31.4252Z" fill="url(#paint0_linear_35_792)"/>
<path d="M19.3691 29.159C19.0558 28.8461 18.5497 28.8461 18.2365 29.159L7.03777 40.3571C6.72439 40.67 6.72439 41.1763 7.03777 41.4899C7.19388 41.6456 7.39891 41.7244 7.60417 41.7244C7.8092 41.7244 8.01401 41.6453 8.17058 41.4899L19.3691 30.2925C19.6821 29.9796 19.6821 29.4726 19.3691 29.159Z" fill="url(#paint1_linear_35_792)"/>
<path d="M22.484 33.4081L11.2855 44.6055C10.9726 44.9194 10.9726 45.4254 11.2855 45.7381C11.442 45.8947 11.6468 45.9729 11.8519 45.9729C12.0571 45.9729 12.2622 45.8944 12.4183 45.7381L23.6168 34.5416C23.9302 34.228 23.9302 33.7219 23.6168 33.409C23.3039 33.0954 22.7965 33.0954 22.484 33.4081Z" fill="url(#paint2_linear_35_792)"/>
<path d="M45.4217 10.9567C46.3838 10.9567 47.2896 10.5821 47.9662 9.90437C48.147 9.72768 48.3073 9.52471 48.4574 9.28607L52.0001 4.7299C52.2488 4.41104 52.22 3.958 51.9345 3.67206L49.1036 0.83956C48.8181 0.554528 48.3628 0.525499 48.0451 0.773045L43.4887 4.31732C43.2509 4.46704 43.0491 4.62727 42.8731 4.80464C42.1911 5.48511 41.8171 6.38981 41.8171 7.35302C41.8171 8.04217 42.0166 8.69795 42.3755 9.26665L28.3721 23.2696L24.69 19.5877C24.5664 19.464 24.4111 19.4039 24.2507 19.3776L19.5021 14.6285C20.6945 11.0491 19.7629 7.0449 17.0981 4.38087C15.2076 2.49055 12.6944 1.44894 10.0208 1.44894C8.71174 1.44894 7.43583 1.69923 6.22873 2.19181C5.9805 2.29261 5.7997 2.51204 5.74575 2.7749C5.69295 3.03845 5.77547 3.30999 5.9645 3.49971L10.5863 8.12149L10.3888 11.8335L6.67674 12.0313L2.05496 7.40948C1.86524 7.2193 1.59369 7.1377 1.33038 7.19096C1.06683 7.24353 0.848085 7.42479 0.747283 7.67394C-0.780509 11.4184 0.0800742 15.6839 2.93771 18.5408C4.82162 20.4257 7.32863 21.4627 9.9977 21.4627C11.0855 21.4627 12.1506 21.2794 13.1779 20.9372L17.6927 25.4525L4.91351 38.2334C2.25976 40.8883 2.25976 45.2079 4.91351 47.8626C6.20016 49.1479 7.91012 49.8558 9.72843 49.8558C11.5467 49.8558 13.2558 49.1479 14.5415 47.8626L27.323 35.0828L31.0775 38.8382C29.944 42.3887 30.8835 46.3334 33.5198 48.9687C35.4097 50.8592 37.9245 51.9004 40.5981 51.9004C41.906 51.9004 43.1819 51.6501 44.3879 51.1582C44.6368 51.0574 44.8174 50.8391 44.8713 50.5753C44.9237 50.3118 44.8423 50.0395 44.6523 49.8503L40.0301 45.2281L40.2281 41.5165L43.9394 41.3185L48.5617 45.9407C48.7518 46.13 49.0202 46.2123 49.2869 46.1597C49.5496 46.1067 49.7685 45.9252 49.8696 45.6756C51.3967 41.9304 50.5361 37.665 47.6794 34.8089C45.7943 32.9232 43.2873 31.8859 40.6182 31.8859C39.4879 31.8859 38.3828 32.0839 37.3151 32.4546C37.297 32.4318 37.2815 32.4059 37.2612 32.3849L33.3992 28.5222C33.3717 28.3581 33.3084 28.2024 33.1896 28.0827L29.5054 24.4024L43.5086 10.3995C44.0786 10.7574 44.7342 10.9567 45.4217 10.9567ZM4.07167 17.4082C1.96901 15.3056 1.15346 12.2943 1.84673 9.46482L5.79764 13.4162C5.95878 13.5771 6.18484 13.6626 6.40656 13.65L11.1941 13.3949C11.6025 13.3734 11.9294 13.0468 11.9509 12.6381L12.2055 7.85063C12.2176 7.62388 12.1328 7.40216 11.9717 7.24193L8.02075 3.29079C8.67196 3.13193 9.34054 3.05193 10.0208 3.05193C12.2665 3.05193 14.3781 3.92692 15.9658 5.51414C18.238 7.78571 19.0124 11.2196 17.9409 14.2587C17.9265 14.2985 17.9089 14.3373 17.892 14.3755L17.8271 14.5307C17.8264 14.5335 17.8248 14.5351 17.8239 14.5373C17.393 15.6386 16.7676 16.6055 15.9642 17.4082C15.2245 18.1475 14.3548 18.7376 13.3641 19.1685C13.3129 19.192 13.2601 19.2112 13.2069 19.2311L13.099 19.2718C13.0974 19.273 13.0958 19.2746 13.0935 19.2752C12.1047 19.6636 11.0638 19.8608 9.99815 19.8608C7.75858 19.8615 5.65364 18.9902 4.07167 17.4082ZM14.8042 20.2469C15.1815 20.0426 15.5395 19.8103 15.8855 19.5612C15.9651 19.504 16.0417 19.4451 16.1187 19.3863C16.4606 19.1239 16.7921 18.8476 17.0984 18.5415C17.4058 18.2336 17.684 17.899 17.9475 17.5532C18.0129 17.4663 18.0755 17.3783 18.1379 17.2896C18.3526 16.9877 18.5514 16.6729 18.7318 16.3451C18.758 16.2978 18.7923 16.2565 18.8175 16.2091L22.8776 20.2693L21.132 22.014C20.9814 22.1646 20.8973 22.3681 20.8973 22.5804C20.8973 22.7937 20.9814 22.9969 21.132 23.1475C21.2641 23.2796 21.3659 23.4332 21.4438 23.5976C21.5439 23.8088 21.6013 24.0387 21.6013 24.2792C21.6013 24.4641 21.5645 24.6417 21.5048 24.8115C21.4957 24.8383 21.4911 24.8664 21.4806 24.8925C21.479 24.8968 21.4767 24.9007 21.4744 24.9046C21.3951 25.0911 21.2813 25.2637 21.1329 25.4116C21.0372 25.5078 20.9265 25.5848 20.8118 25.652C20.7796 25.6705 20.7469 25.6881 20.7133 25.7041C20.6182 25.7514 20.5181 25.7876 20.4136 25.8157C20.3898 25.8218 20.3663 25.8324 20.3425 25.8365L14.7722 20.267C14.784 20.2604 14.7939 20.2524 14.8042 20.2469ZM13.4089 46.7291C12.4261 47.7124 11.1186 48.253 9.72821 48.253C8.3371 48.253 7.02965 47.7117 6.04587 46.7291C4.01636 44.6994 4.01636 41.3969 6.04587 39.366L18.374 27.0383C18.8595 27.3215 19.425 27.4731 20.044 27.4763C20.0465 27.4763 20.0481 27.4779 20.0506 27.4779C20.0554 27.4779 20.0593 27.4779 20.0639 27.4779C20.0646 27.4779 20.0666 27.4779 20.0675 27.4779C20.9002 27.46 21.682 27.1284 22.266 26.5439C22.8717 25.9393 23.205 25.1352 23.205 24.2799C23.205 24.134 23.1951 23.9905 23.1762 23.8488C23.1202 23.4234 22.9791 23.0172 22.762 22.6513L24.0107 21.4026L31.3728 28.7641L30.1244 30.0134C28.9182 29.2969 27.2466 29.4925 26.2317 30.5085C25.6471 31.0921 25.3154 31.8743 25.2978 32.7065C25.2978 32.7072 25.2978 32.7072 25.2978 32.7081V32.709V32.7097C25.2857 33.3166 25.4386 33.8962 25.7367 34.4023L13.4089 46.7291ZM40.6157 33.4885C42.8567 33.4885 44.9625 34.3598 46.5443 35.9422C48.6467 38.0449 49.462 41.0556 48.7694 43.8856L44.8169 39.9331C44.6574 39.772 44.4377 39.6899 44.2085 39.6993L39.4205 39.9544C39.0114 39.9754 38.6845 40.3032 38.6635 40.7114L38.4084 45.4994C38.3967 45.7261 38.4811 45.9476 38.6422 46.1078L42.5931 50.0603C41.943 50.2176 41.2752 50.2981 40.5963 50.2981C38.3499 50.2981 36.2387 49.4229 34.6497 47.8359C32.3774 45.5643 31.603 42.1311 32.6746 39.0913C32.691 39.046 32.7098 39.0037 32.7285 38.9608L32.7909 38.8124C33.222 37.7077 33.8469 36.7425 34.6511 35.9408C35.3889 35.2019 36.2577 34.6121 37.2365 34.1856L37.5151 34.0761C38.5069 33.6866 39.5487 33.4885 40.6157 33.4885ZM33.2924 34.309C32.5322 35.0686 31.905 35.9518 31.4286 36.9239L26.936 32.4292C26.9367 32.427 26.9383 32.4247 26.9392 32.4224C26.968 32.291 27.0178 32.1673 27.0779 32.0484C27.0912 32.0219 27.1049 31.9961 27.1202 31.9703C27.1883 31.8528 27.2674 31.7401 27.365 31.6423C27.9703 31.037 29.0249 31.037 29.6302 31.6423C29.6992 31.7113 29.7804 31.7588 29.8636 31.7966C29.8729 31.8018 29.8807 31.8107 29.8892 31.8137C30.1801 31.9332 30.5267 31.8777 30.763 31.6416L32.5073 29.8964L35.3443 32.7342C34.5912 33.1696 33.9043 33.6967 33.2924 34.309ZM44.0082 5.93609C44.1051 5.8378 44.2231 5.74706 44.3696 5.65677C44.3931 5.64145 44.4181 5.62454 44.4409 5.60694L48.4709 2.47181L50.302 4.30452L47.1685 8.33498C47.1504 8.35738 47.1342 8.38229 47.1184 8.40652C47.0291 8.55212 46.9385 8.66892 46.8382 8.76767C46.0812 9.52356 44.7639 9.52356 44.0066 8.76767C43.6272 8.38938 43.4199 7.88651 43.4199 7.35233C43.4192 6.81816 43.6272 6.31506 44.0082 5.93609Z" fill="url(#paint3_linear_35_792)"/>
</g>
<defs>
<linearGradient id="paint0_linear_35_792" x1="9.06836" y1="37.5432" x2="23.5382" y2="37.5432" gradientUnits="userSpaceOnUse">
<stop stop-color="#0B5CE4"/>
<stop offset="1" stop-color="#4AB6CE"/>
</linearGradient>
<linearGradient id="paint1_linear_35_792" x1="6.80273" y1="35.277" x2="21.2735" y2="35.277" gradientUnits="userSpaceOnUse">
<stop stop-color="#0B5CE4"/>
<stop offset="1" stop-color="#4AB6CE"/>
</linearGradient>
<linearGradient id="paint2_linear_35_792" x1="11.0508" y1="39.5259" x2="25.5216" y2="39.5259" gradientUnits="userSpaceOnUse">
<stop stop-color="#0B5CE4"/>
<stop offset="1" stop-color="#4AB6CE"/>
</linearGradient>
<linearGradient id="paint3_linear_35_792" x1="0.000977054" y1="26.0627" x2="58.9737" y2="26.0627" gradientUnits="userSpaceOnUse">
<stop stop-color="#0B5CE4"/>
<stop offset="1" stop-color="#4AB6CE"/>
</linearGradient>
<clipPath id="clip0_35_792">
<rect width="52.1685" height="52.1685" fill="white" transform="translate(0 0.168457)"/>
</clipPath>
</defs>
</svg>
