<svg width="53" height="53" viewBox="0 0 53 53" fill="none" xmlns="http://www.w3.org/2000/svg">
<g clip-path="url(#clip0_35_811)">
<path d="M20.583 37.2327C20.3859 37.2327 20.1875 37.1649 20.0255 37.027L14.4522 32.2813C14.26 32.1175 14.1494 31.8781 14.1494 31.6253C14.1494 31.373 14.2604 31.1336 14.4522 30.9697L20.0255 26.2241C20.3874 25.9155 20.931 25.9593 21.2395 26.3212C21.5476 26.6836 21.5044 27.2271 21.142 27.5352L16.3391 31.6253L21.142 35.7154C21.5044 36.0239 21.5476 36.5675 21.2395 36.9294C21.0689 37.1298 20.8267 37.2327 20.583 37.2327Z" fill="url(#paint0_linear_35_811)"/>
<path d="M31.5853 37.2327C31.3417 37.2327 31.0994 37.1298 30.9293 36.9294C30.6207 36.5675 30.6645 36.0239 31.0264 35.7154L35.8292 31.6253L31.0264 27.5352C30.6645 27.2271 30.6207 26.6836 30.9293 26.3212C31.2374 25.9593 31.7814 25.9155 32.1428 26.2241L37.7161 30.9697C37.9084 31.1336 38.0189 31.373 38.0189 31.6253C38.0189 31.8781 37.9084 32.1175 37.7161 32.2813L32.1428 37.027C31.9809 37.1649 31.7824 37.2327 31.5853 37.2327Z" fill="url(#paint1_linear_35_811)"/>
<path d="M24.1117 40.7921C24.0525 40.7921 23.9929 40.7859 23.9329 40.7734C23.4676 40.6753 23.1696 40.2183 23.2677 39.753L26.7411 23.2615C26.8392 22.7962 27.2958 22.4983 27.7615 22.5963C28.2267 22.6943 28.5247 23.1509 28.4267 23.6167L24.9532 40.1082C24.8677 40.5138 24.5101 40.7921 24.1117 40.7921Z" fill="url(#paint2_linear_35_811)"/>
<path d="M46.3857 49.777H5.78283C2.59439 49.777 0 47.1831 0 43.9942V9.53271C0 6.34427 2.59439 3.74988 5.78283 3.74988H46.3857C49.5741 3.74988 52.1685 6.34427 52.1685 9.53271V43.9942C52.1685 47.1831 49.5741 49.777 46.3857 49.777ZM5.78283 5.47242C3.5441 5.47242 1.72254 7.29397 1.72254 9.53271V43.9942C1.72254 46.2329 3.5441 48.0545 5.78283 48.0545H46.3857C48.6244 48.0545 50.4459 46.2329 50.4459 43.9942V9.53271C50.4459 7.29397 48.6244 5.47242 46.3857 5.47242H5.78283Z" fill="url(#paint3_linear_35_811)"/>
<path d="M51.3072 17.5413H0.861272C0.385458 17.5413 0 17.1558 0 16.68C0 16.2047 0.385458 15.8187 0.861272 15.8187H51.3072C51.783 15.8187 52.1685 16.2047 52.1685 16.68C52.1685 17.1558 51.783 17.5413 51.3072 17.5413Z" fill="url(#paint4_linear_35_811)"/>
<path d="M14.7158 13.4198C13.2134 13.4198 11.9902 12.1966 11.9902 10.6942C11.9902 9.19133 13.2134 7.96863 14.7158 7.96863C16.2187 7.96863 17.4414 9.19133 17.4414 10.6942C17.4414 12.1966 16.2187 13.4198 14.7158 13.4198ZM14.7158 9.69117C14.1631 9.69117 13.7128 10.141 13.7128 10.6942C13.7128 11.2474 14.1631 11.6973 14.7158 11.6973C15.269 11.6973 15.7189 11.2474 15.7189 10.6942C15.7189 10.141 15.269 9.69117 14.7158 9.69117Z" fill="url(#paint5_linear_35_811)"/>
<path d="M6.34181 13.3935C4.83891 13.3935 3.61621 12.1708 3.61621 10.6679C3.61621 9.16496 4.83891 7.94226 6.34181 7.94226C7.84471 7.94226 9.06741 9.16496 9.06741 10.6679C9.06741 12.1708 7.84471 13.3935 6.34181 13.3935ZM6.34181 9.66481C5.7891 9.66481 5.33876 10.1151 5.33876 10.6679C5.33876 11.2211 5.7891 11.6709 6.34181 11.6709C6.89501 11.6709 7.34487 11.2211 7.34487 10.6679C7.34487 10.1151 6.89501 9.66481 6.34181 9.66481Z" fill="url(#paint6_linear_35_811)"/>
<path d="M23.0904 13.4458C21.5879 13.4458 20.3652 12.2231 20.3652 10.7202C20.3652 9.21782 21.5879 7.99512 23.0904 7.99512C24.5933 7.99512 25.816 9.21782 25.816 10.7202C25.816 12.2231 24.5933 13.4458 23.0904 13.4458ZM23.0904 9.71718C22.5376 9.71718 22.0878 10.167 22.0878 10.7202C22.0878 11.2734 22.5376 11.7233 23.0904 11.7233C23.6435 11.7233 24.0934 11.2734 24.0934 10.7202C24.0934 10.167 23.6435 9.71718 23.0904 9.71718Z" fill="url(#paint7_linear_35_811)"/>
</g>
<defs>
<linearGradient id="paint0_linear_35_811" x1="14.1494" y1="31.584" x2="22.3965" y2="31.584" gradientUnits="userSpaceOnUse">
<stop stop-color="#0B5CE4"/>
<stop offset="1" stop-color="#4AB6CE"/>
</linearGradient>
<linearGradient id="paint1_linear_35_811" x1="30.7236" y1="31.584" x2="38.9705" y2="31.584" gradientUnits="userSpaceOnUse">
<stop stop-color="#0B5CE4"/>
<stop offset="1" stop-color="#4AB6CE"/>
</linearGradient>
<linearGradient id="paint2_linear_35_811" x1="23.249" y1="31.6174" x2="29.1231" y2="31.6174" gradientUnits="userSpaceOnUse">
<stop stop-color="#0B5CE4"/>
<stop offset="1" stop-color="#4AB6CE"/>
</linearGradient>
<linearGradient id="paint3_linear_35_811" x1="4.91162e-07" y1="26.593" x2="58.9731" y2="26.593" gradientUnits="userSpaceOnUse">
<stop stop-color="#0B5CE4"/>
<stop offset="1" stop-color="#4AB6CE"/>
</linearGradient>
<linearGradient id="paint4_linear_35_811" x1="4.91162e-07" y1="16.6736" x2="58.9731" y2="16.6736" gradientUnits="userSpaceOnUse">
<stop stop-color="#0B5CE4"/>
<stop offset="1" stop-color="#4AB6CE"/>
</linearGradient>
<linearGradient id="paint5_linear_35_811" x1="11.9902" y1="10.674" x2="18.1525" y2="10.674" gradientUnits="userSpaceOnUse">
<stop stop-color="#0B5CE4"/>
<stop offset="1" stop-color="#4AB6CE"/>
</linearGradient>
<linearGradient id="paint6_linear_35_811" x1="3.61621" y1="10.6477" x2="9.77844" y2="10.6477" gradientUnits="userSpaceOnUse">
<stop stop-color="#0B5CE4"/>
<stop offset="1" stop-color="#4AB6CE"/>
</linearGradient>
<linearGradient id="paint7_linear_35_811" x1="20.3652" y1="10.7003" x2="26.5269" y2="10.7003" gradientUnits="userSpaceOnUse">
<stop stop-color="#0B5CE4"/>
<stop offset="1" stop-color="#4AB6CE"/>
</linearGradient>
<clipPath id="clip0_35_811">
<rect width="52.1685" height="52.1685" fill="white" transform="translate(0 0.673828)"/>
</clipPath>
</defs>
</svg>
