<svg width="53" height="53" viewBox="0 0 53 53" fill="none" xmlns="http://www.w3.org/2000/svg">
<g clip-path="url(#clip0_35_801)">
<path d="M26.0847 51.2012C39.7698 51.2012 50.8647 40.1062 50.8647 26.4211C50.8647 12.736 39.7698 1.64111 26.0847 1.64111C12.3996 1.64111 1.30469 12.736 1.30469 26.4211C1.30469 40.1062 12.3996 51.2012 26.0847 51.2012Z" stroke="url(#paint0_linear_35_801)" stroke-width="1.95632" stroke-miterlimit="10"/>
<path d="M26.0313 12.0017V40.8404M18.5777 30.5789C18.5777 30.5789 18.3625 37.1678 26.463 37.1678C33.9152 37.1678 33.7 32.6317 33.7 31.9835C33.7 31.2271 33.9152 28.3109 26.3547 26.4746C18.6859 24.6395 19.0107 21.7233 19.0107 20.9669C19.0107 20.2104 18.6859 15.7826 26.2465 15.7826C33.807 15.7826 33.807 20.9669 33.807 20.9669" stroke="url(#paint1_linear_35_801)" stroke-width="1.95632" stroke-miterlimit="10"/>
</g>
<defs>
<linearGradient id="paint0_linear_35_801" x1="1.30469" y1="26.2376" x2="57.3291" y2="26.2376" gradientUnits="userSpaceOnUse">
<stop stop-color="#0B5CE4"/>
<stop offset="1" stop-color="#4AB6CE"/>
</linearGradient>
<linearGradient id="paint1_linear_35_801" x1="18.5771" y1="26.3143" x2="35.7935" y2="26.3143" gradientUnits="userSpaceOnUse">
<stop stop-color="#0B5CE4"/>
<stop offset="1" stop-color="#4AB6CE"/>
</linearGradient>
<clipPath id="clip0_35_801">
<rect width="52.1685" height="52.1685" fill="white" transform="translate(0 0.336914)"/>
</clipPath>
</defs>
</svg>
