<svg width="53" height="53" viewBox="0 0 53 53" fill="none" xmlns="http://www.w3.org/2000/svg">
<g clip-path="url(#clip0_35_831)">
<mask id="mask0_35_831" style="mask-type:luminance" maskUnits="userSpaceOnUse" x="0" y="1" width="52" height="49">
<path d="M0 1.31494H51.7868V49.5578H0V1.31494Z" fill="white"/>
</mask>
<g mask="url(#mask0_35_831)">
<path d="M26.0701 17.6102V10.3577M43.4929 42.1959L38.4519 38.8345M8.38379 42.3725L13.8661 38.8345" stroke="url(#paint0_linear_35_831)" stroke-width="1.76546" stroke-miterlimit="10"/>
<path d="M26.1574 45.9988C33.9725 45.9988 40.3081 39.6631 40.3081 31.848C40.3081 24.0329 33.9725 17.6985 26.1574 17.6985C18.3423 17.6985 12.0078 24.0341 12.0078 31.848C12.0078 39.6631 18.3435 45.9988 26.1574 45.9988Z" stroke="url(#paint1_linear_35_831)" stroke-width="1.76546" stroke-miterlimit="10"/>
<path d="M26.0693 10.3576C27.1247 10.3576 28.1369 9.93836 28.8831 9.19209C29.6294 8.44582 30.0487 7.43365 30.0487 6.37827C30.0487 5.32288 29.6294 4.31072 28.8831 3.56445C28.1369 2.81818 27.1247 2.39893 26.0693 2.39893C25.0139 2.39893 24.0018 2.81818 23.2555 3.56445C22.5092 4.31072 22.09 5.32288 22.09 6.37827C22.09 7.43365 22.5092 8.44582 23.2555 9.19209C24.0018 9.93836 25.0139 10.3576 26.0693 10.3576ZM46.6758 48.475C47.7313 48.475 48.7436 48.0557 49.49 47.3093C50.2364 46.5629 50.6557 45.5506 50.6557 44.4951C50.6557 43.4395 50.2364 42.4272 49.49 41.6808C48.7436 40.9345 47.7313 40.5152 46.6758 40.5152C45.6202 40.5152 44.6079 40.9345 43.8615 41.6808C43.1151 42.4272 42.6958 43.4395 42.6958 44.4951C42.6958 45.5506 43.1151 46.5629 43.8615 47.3093C44.6079 48.0557 45.6202 48.475 46.6758 48.475ZM5.10981 48.475C6.16536 48.475 7.17767 48.0557 7.92405 47.3093C8.67043 46.5629 9.08974 45.5506 9.08974 44.4951C9.08974 43.4395 8.67043 42.4272 7.92405 41.6808C7.17767 40.9345 6.16536 40.5152 5.10981 40.5152C4.05427 40.5152 3.04196 40.9345 2.29558 41.6808C1.5492 42.4272 1.12988 43.4395 1.12988 44.4951C1.12988 45.5506 1.5492 46.5629 2.29558 47.3093C3.04196 48.0557 4.05427 48.475 5.10981 48.475Z" stroke="url(#paint2_linear_35_831)" stroke-width="1.76546" stroke-miterlimit="10"/>
</g>
</g>
<defs>
<linearGradient id="paint0_linear_35_831" x1="8.38379" y1="26.2465" x2="48.0723" y2="26.2465" gradientUnits="userSpaceOnUse">
<stop stop-color="#0B5CE4"/>
<stop offset="1" stop-color="#4AB6CE"/>
</linearGradient>
<linearGradient id="paint1_linear_35_831" x1="12.0078" y1="31.7438" x2="43.9994" y2="31.7438" gradientUnits="userSpaceOnUse">
<stop stop-color="#0B5CE4"/>
<stop offset="1" stop-color="#4AB6CE"/>
</linearGradient>
<linearGradient id="paint2_linear_35_831" x1="1.12988" y1="25.2663" x2="57.1156" y2="25.2663" gradientUnits="userSpaceOnUse">
<stop stop-color="#0B5CE4"/>
<stop offset="1" stop-color="#4AB6CE"/>
</linearGradient>
<clipPath id="clip0_35_831">
<rect width="52.1685" height="52.1685" fill="white" transform="translate(0 0.0107422)"/>
</clipPath>
</defs>
</svg>
